<mxfile host="app.diagrams.net" modified="2021-03-27T07:40:14.029Z" agent="5.0 (Windows NT 10.0; Win64; x64) AppleWebKit/537.36 (KHTML, like Gecko) Chrome/89.0.4389.90 Safari/537.36 Edg/89.0.774.57" etag="Md3lTlrutrnPP0QxjEK6" version="14.5.3" type="github">
  <diagram id="nl3zZZx1qM9_duUa9IWT" name="Page-1">
    <mxGraphModel dx="1114" dy="1631" grid="1" gridSize="10" guides="1" tooltips="1" connect="1" arrows="1" fold="1" page="1" pageScale="1" pageWidth="827" pageHeight="1169" math="0" shadow="0">
      <root>
        <mxCell id="0" />
        <mxCell id="1" parent="0" />
        <mxCell id="xV1JyaOktzTvIBMgtU9d-1" value="" style="rounded=0;whiteSpace=wrap;html=1;sketch=1;" vertex="1" parent="1">
          <mxGeometry x="120" y="100" width="560" height="330" as="geometry" />
        </mxCell>
        <mxCell id="xV1JyaOktzTvIBMgtU9d-4" value="个人工作台 - 服务列表" style="text;html=1;strokeColor=none;fillColor=none;align=center;verticalAlign=middle;whiteSpace=wrap;rounded=0;sketch=1;fontFamily=Comic Sans MS;" vertex="1" parent="1">
          <mxGeometry x="110" y="60" width="130" height="20" as="geometry" />
        </mxCell>
        <mxCell id="xV1JyaOktzTvIBMgtU9d-14" value="" style="rounded=1;whiteSpace=wrap;html=1;sketch=1;fontFamily=hannotateSC-W5;" vertex="1" parent="1">
          <mxGeometry x="160" y="130" width="140" height="60" as="geometry" />
        </mxCell>
        <mxCell id="xV1JyaOktzTvIBMgtU9d-15" value="" style="ellipse;whiteSpace=wrap;html=1;aspect=fixed;sketch=1;fontFamily=hannotateSC-W5;" vertex="1" parent="1">
          <mxGeometry x="170" y="145" width="30" height="30" as="geometry" />
        </mxCell>
        <mxCell id="xV1JyaOktzTvIBMgtU9d-16" value="User" style="text;html=1;strokeColor=none;fillColor=none;align=center;verticalAlign=middle;whiteSpace=wrap;rounded=0;sketch=1;fontFamily=Comic Sans MS;" vertex="1" parent="1">
          <mxGeometry x="207" y="140" width="40" height="20" as="geometry" />
        </mxCell>
        <mxCell id="xV1JyaOktzTvIBMgtU9d-17" value="high light info" style="text;html=1;strokeColor=none;fillColor=none;align=center;verticalAlign=middle;whiteSpace=wrap;rounded=0;sketch=1;fontFamily=Comic Sans MS;" vertex="1" parent="1">
          <mxGeometry x="210" y="160" width="90" height="20" as="geometry" />
        </mxCell>
        <mxCell id="xV1JyaOktzTvIBMgtU9d-18" value="" style="rounded=1;whiteSpace=wrap;html=1;sketch=1;fontFamily=hannotateSC-W5;" vertex="1" parent="1">
          <mxGeometry x="330" y="130" width="310" height="60" as="geometry" />
        </mxCell>
        <mxCell id="xV1JyaOktzTvIBMgtU9d-21" value="" style="rounded=0;whiteSpace=wrap;html=1;sketch=1;fontFamily=hannotateSC-W5;" vertex="1" parent="1">
          <mxGeometry x="165" y="222" width="470" height="35" as="geometry" />
        </mxCell>
        <mxCell id="xV1JyaOktzTvIBMgtU9d-22" value="" style="rounded=0;whiteSpace=wrap;html=1;sketch=1;fontFamily=hannotateSC-W5;" vertex="1" parent="1">
          <mxGeometry x="165" y="267" width="470" height="35" as="geometry" />
        </mxCell>
        <mxCell id="xV1JyaOktzTvIBMgtU9d-23" value="" style="rounded=0;whiteSpace=wrap;html=1;sketch=1;fontFamily=hannotateSC-W5;" vertex="1" parent="1">
          <mxGeometry x="165" y="315" width="470" height="35" as="geometry" />
        </mxCell>
        <mxCell id="xV1JyaOktzTvIBMgtU9d-24" value="" style="rounded=0;whiteSpace=wrap;html=1;sketch=1;fontFamily=hannotateSC-W5;" vertex="1" parent="1">
          <mxGeometry x="166" y="362" width="470" height="35" as="geometry" />
        </mxCell>
        <mxCell id="xV1JyaOktzTvIBMgtU9d-25" value="" style="endArrow=none;html=1;fontFamily=hannotateSC-W5;sketch=1;" edge="1" parent="1">
          <mxGeometry width="50" height="50" relative="1" as="geometry">
            <mxPoint x="540" y="180" as="sourcePoint" />
            <mxPoint x="540" y="140" as="targetPoint" />
          </mxGeometry>
        </mxCell>
        <mxCell id="xV1JyaOktzTvIBMgtU9d-27" value="" style="endArrow=none;html=1;fontFamily=hannotateSC-W5;sketch=1;" edge="1" parent="1">
          <mxGeometry width="50" height="50" relative="1" as="geometry">
            <mxPoint x="430" y="180" as="sourcePoint" />
            <mxPoint x="430" y="140" as="targetPoint" />
          </mxGeometry>
        </mxCell>
        <mxCell id="xV1JyaOktzTvIBMgtU9d-28" value="SVC BRN" style="text;html=1;strokeColor=none;fillColor=none;align=center;verticalAlign=middle;whiteSpace=wrap;rounded=0;sketch=1;fontFamily=Comic Sans MS;" vertex="1" parent="1">
          <mxGeometry x="190" y="229.5" width="60" height="20" as="geometry" />
        </mxCell>
        <mxCell id="xV1JyaOktzTvIBMgtU9d-29" value="Git Repo" style="text;html=1;strokeColor=none;fillColor=none;align=center;verticalAlign=middle;whiteSpace=wrap;rounded=0;sketch=1;fontFamily=Comic Sans MS;" vertex="1" parent="1">
          <mxGeometry x="270" y="229.5" width="60" height="20" as="geometry" />
        </mxCell>
        <mxCell id="xV1JyaOktzTvIBMgtU9d-30" value="Time" style="text;html=1;strokeColor=none;fillColor=none;align=center;verticalAlign=middle;whiteSpace=wrap;rounded=0;sketch=1;fontFamily=Comic Sans MS;" vertex="1" parent="1">
          <mxGeometry x="330" y="229.5" width="60" height="20" as="geometry" />
        </mxCell>
        <mxCell id="xV1JyaOktzTvIBMgtU9d-31" value="Key Info" style="text;html=1;strokeColor=none;fillColor=none;align=center;verticalAlign=middle;whiteSpace=wrap;rounded=0;sketch=1;fontFamily=Comic Sans MS;" vertex="1" parent="1">
          <mxGeometry x="390" y="229.5" width="60" height="20" as="geometry" />
        </mxCell>
        <mxCell id="xV1JyaOktzTvIBMgtU9d-51" style="edgeStyle=orthogonalEdgeStyle;rounded=0;sketch=1;orthogonalLoop=1;jettySize=auto;html=1;entryX=1;entryY=0.176;entryDx=0;entryDy=0;fontFamily=Comic Sans MS;entryPerimeter=0;" edge="1" parent="1" source="xV1JyaOktzTvIBMgtU9d-32" target="xV1JyaOktzTvIBMgtU9d-3">
          <mxGeometry relative="1" as="geometry">
            <Array as="points">
              <mxPoint x="700" y="240" />
              <mxPoint x="700" y="566" />
            </Array>
          </mxGeometry>
        </mxCell>
        <mxCell id="xV1JyaOktzTvIBMgtU9d-32" value="Key Actions" style="text;html=1;strokeColor=none;fillColor=none;align=center;verticalAlign=middle;whiteSpace=wrap;rounded=0;sketch=1;fontFamily=Comic Sans MS;" vertex="1" parent="1">
          <mxGeometry x="530" y="229.5" width="90" height="20" as="geometry" />
        </mxCell>
        <mxCell id="xV1JyaOktzTvIBMgtU9d-50" value="" style="group" vertex="1" connectable="0" parent="1">
          <mxGeometry x="110" y="470" width="570" height="335" as="geometry" />
        </mxCell>
        <mxCell id="xV1JyaOktzTvIBMgtU9d-3" value="" style="rounded=0;whiteSpace=wrap;html=1;sketch=1;" vertex="1" parent="xV1JyaOktzTvIBMgtU9d-50">
          <mxGeometry x="10" y="45" width="560" height="290" as="geometry" />
        </mxCell>
        <mxCell id="xV1JyaOktzTvIBMgtU9d-12" value="个人工作台 - 服务详情" style="text;html=1;strokeColor=none;fillColor=none;align=center;verticalAlign=middle;whiteSpace=wrap;rounded=0;sketch=1;fontFamily=Comic Sans MS;" vertex="1" parent="xV1JyaOktzTvIBMgtU9d-50">
          <mxGeometry width="130" height="20" as="geometry" />
        </mxCell>
        <mxCell id="xV1JyaOktzTvIBMgtU9d-34" value="Project Detail Info" style="rounded=1;whiteSpace=wrap;html=1;sketch=1;fontFamily=Comic Sans MS;" vertex="1" parent="xV1JyaOktzTvIBMgtU9d-50">
          <mxGeometry x="50" y="75" width="470" height="60" as="geometry" />
        </mxCell>
        <mxCell id="xV1JyaOktzTvIBMgtU9d-35" value="" style="rounded=0;whiteSpace=wrap;html=1;sketch=1;fontFamily=hannotateSC-W5;" vertex="1" parent="xV1JyaOktzTvIBMgtU9d-50">
          <mxGeometry x="50" y="165" width="470" height="35" as="geometry" />
        </mxCell>
        <mxCell id="xV1JyaOktzTvIBMgtU9d-36" value="ENV BRN" style="text;html=1;strokeColor=none;fillColor=none;align=center;verticalAlign=middle;whiteSpace=wrap;rounded=0;sketch=1;fontFamily=Comic Sans MS;" vertex="1" parent="xV1JyaOktzTvIBMgtU9d-50">
          <mxGeometry x="76" y="172.5" width="68" height="20" as="geometry" />
        </mxCell>
        <mxCell id="xV1JyaOktzTvIBMgtU9d-39" value="Deploy Info" style="text;html=1;strokeColor=none;fillColor=none;align=center;verticalAlign=middle;whiteSpace=wrap;rounded=0;sketch=1;fontFamily=Comic Sans MS;" vertex="1" parent="xV1JyaOktzTvIBMgtU9d-50">
          <mxGeometry x="156" y="172.5" width="94" height="20" as="geometry" />
        </mxCell>
        <mxCell id="xV1JyaOktzTvIBMgtU9d-40" value="Status Info" style="text;html=1;strokeColor=none;fillColor=none;align=center;verticalAlign=middle;whiteSpace=wrap;rounded=0;sketch=1;fontFamily=Comic Sans MS;" vertex="1" parent="xV1JyaOktzTvIBMgtU9d-50">
          <mxGeometry x="257" y="172.5" width="94" height="20" as="geometry" />
        </mxCell>
        <mxCell id="xV1JyaOktzTvIBMgtU9d-41" value="Key Actions" style="text;html=1;strokeColor=none;fillColor=none;align=center;verticalAlign=middle;whiteSpace=wrap;rounded=0;sketch=1;fontFamily=Comic Sans MS;" vertex="1" parent="xV1JyaOktzTvIBMgtU9d-50">
          <mxGeometry x="410" y="172.5" width="94" height="20" as="geometry" />
        </mxCell>
        <mxCell id="xV1JyaOktzTvIBMgtU9d-44" value="" style="rounded=0;whiteSpace=wrap;html=1;sketch=1;fontFamily=hannotateSC-W5;" vertex="1" parent="xV1JyaOktzTvIBMgtU9d-50">
          <mxGeometry x="50" y="215" width="470" height="35" as="geometry" />
        </mxCell>
        <mxCell id="xV1JyaOktzTvIBMgtU9d-45" value="" style="rounded=0;whiteSpace=wrap;html=1;sketch=1;fontFamily=hannotateSC-W5;" vertex="1" parent="xV1JyaOktzTvIBMgtU9d-50">
          <mxGeometry x="50" y="265" width="470" height="35" as="geometry" />
        </mxCell>
        <mxCell id="xV1JyaOktzTvIBMgtU9d-52" style="edgeStyle=orthogonalEdgeStyle;rounded=0;sketch=1;orthogonalLoop=1;jettySize=auto;html=1;entryX=0;entryY=0.5;entryDx=0;entryDy=0;fontFamily=Comic Sans MS;" edge="1" parent="1" source="xV1JyaOktzTvIBMgtU9d-36" target="xV1JyaOktzTvIBMgtU9d-47">
          <mxGeometry relative="1" as="geometry">
            <Array as="points">
              <mxPoint x="100" y="653" />
              <mxPoint x="100" y="786" />
              <mxPoint x="101" y="786" />
              <mxPoint x="101" y="1055" />
            </Array>
          </mxGeometry>
        </mxCell>
        <mxCell id="xV1JyaOktzTvIBMgtU9d-82" style="edgeStyle=orthogonalEdgeStyle;rounded=0;sketch=1;orthogonalLoop=1;jettySize=auto;html=1;entryX=0;entryY=0.5;entryDx=0;entryDy=0;fontFamily=Comic Sans MS;fontSize=12;" edge="1" parent="1" source="xV1JyaOktzTvIBMgtU9d-78" target="xV1JyaOktzTvIBMgtU9d-77">
          <mxGeometry relative="1" as="geometry" />
        </mxCell>
        <mxCell id="xV1JyaOktzTvIBMgtU9d-83" style="edgeStyle=orthogonalEdgeStyle;rounded=0;sketch=1;orthogonalLoop=1;jettySize=auto;html=1;fontFamily=Comic Sans MS;fontSize=12;entryX=0;entryY=0.5;entryDx=0;entryDy=0;" edge="1" parent="1" source="xV1JyaOktzTvIBMgtU9d-78" target="xV1JyaOktzTvIBMgtU9d-93">
          <mxGeometry relative="1" as="geometry" />
        </mxCell>
        <mxCell id="xV1JyaOktzTvIBMgtU9d-91" style="edgeStyle=orthogonalEdgeStyle;rounded=0;sketch=1;orthogonalLoop=1;jettySize=auto;html=1;fontFamily=Comic Sans MS;fontSize=12;" edge="1" parent="1" source="xV1JyaOktzTvIBMgtU9d-78" target="xV1JyaOktzTvIBMgtU9d-89">
          <mxGeometry relative="1" as="geometry" />
        </mxCell>
        <mxCell id="xV1JyaOktzTvIBMgtU9d-96" style="edgeStyle=orthogonalEdgeStyle;rounded=0;sketch=1;orthogonalLoop=1;jettySize=auto;html=1;fontFamily=Comic Sans MS;fontSize=12;" edge="1" parent="1" source="xV1JyaOktzTvIBMgtU9d-78" target="xV1JyaOktzTvIBMgtU9d-81">
          <mxGeometry relative="1" as="geometry" />
        </mxCell>
        <mxCell id="xV1JyaOktzTvIBMgtU9d-78" value="IDE &lt;br&gt;Service" style="verticalLabelPosition=bottom;verticalAlign=top;html=1;shape=mxgraph.basic.patternFillRect;fillStyle=grid;step=5;fillStrokeWidth=0.2;fillStrokeColor=#dddddd;shadow=0;glass=0;sketch=1;fontFamily=Comic Sans MS;fontSize=12;" vertex="1" parent="1">
          <mxGeometry x="770" y="540" width="30" height="540" as="geometry" />
        </mxCell>
        <mxCell id="xV1JyaOktzTvIBMgtU9d-79" style="edgeStyle=orthogonalEdgeStyle;rounded=0;sketch=1;orthogonalLoop=1;jettySize=auto;html=1;fontFamily=Comic Sans MS;fontSize=12;entryX=0;entryY=0.5;entryDx=0;entryDy=0;entryPerimeter=0;" edge="1" parent="1" source="xV1JyaOktzTvIBMgtU9d-41" target="xV1JyaOktzTvIBMgtU9d-78">
          <mxGeometry relative="1" as="geometry">
            <mxPoint x="800" y="653" as="targetPoint" />
            <Array as="points">
              <mxPoint x="710" y="653" />
              <mxPoint x="710" y="810" />
            </Array>
          </mxGeometry>
        </mxCell>
        <mxCell id="xV1JyaOktzTvIBMgtU9d-86" value="" style="group" vertex="1" connectable="0" parent="1">
          <mxGeometry x="925" y="840" width="275" height="180" as="geometry" />
        </mxCell>
        <mxCell id="xV1JyaOktzTvIBMgtU9d-81" value="" style="rounded=0;whiteSpace=wrap;html=1;sketch=1;fillColor=#f8cecc;strokeColor=#b85450;" vertex="1" parent="xV1JyaOktzTvIBMgtU9d-86">
          <mxGeometry x="5.3921568627450975" y="36" width="269.60784313725486" height="144" as="geometry" />
        </mxCell>
        <mxCell id="xV1JyaOktzTvIBMgtU9d-85" value="VSC IDE +Tools" style="text;html=1;align=center;verticalAlign=middle;resizable=0;points=[];autosize=1;fontSize=12;fontFamily=Comic Sans MS;fontStyle=1" vertex="1" parent="xV1JyaOktzTvIBMgtU9d-86">
          <mxGeometry x="-0.39215686274509753" width="110" height="20" as="geometry" />
        </mxCell>
        <mxCell id="xV1JyaOktzTvIBMgtU9d-87" value="" style="group" vertex="1" connectable="0" parent="1">
          <mxGeometry x="920" y="397" width="280" height="183" as="geometry" />
        </mxCell>
        <mxCell id="xV1JyaOktzTvIBMgtU9d-77" value="" style="rounded=0;whiteSpace=wrap;html=1;sketch=1;fillColor=#f8cecc;strokeColor=#b85450;" vertex="1" parent="xV1JyaOktzTvIBMgtU9d-87">
          <mxGeometry x="10" y="34.25615763546798" width="270" height="148.74384236453201" as="geometry" />
        </mxCell>
        <mxCell id="xV1JyaOktzTvIBMgtU9d-84" value="CloudIDE-TCE/FaaS&amp;nbsp;" style="text;html=1;align=center;verticalAlign=middle;resizable=0;points=[];autosize=1;fontSize=12;fontFamily=Comic Sans MS;fontStyle=1" vertex="1" parent="xV1JyaOktzTvIBMgtU9d-87">
          <mxGeometry width="140" height="20" as="geometry" />
        </mxCell>
        <mxCell id="xV1JyaOktzTvIBMgtU9d-88" value="" style="group" vertex="1" connectable="0" parent="1">
          <mxGeometry x="920" y="620" width="280" height="170" as="geometry" />
        </mxCell>
        <mxCell id="xV1JyaOktzTvIBMgtU9d-89" value="" style="rounded=0;whiteSpace=wrap;html=1;sketch=1;" vertex="1" parent="xV1JyaOktzTvIBMgtU9d-88">
          <mxGeometry x="10" y="31.822660098522167" width="270" height="138.17733990147784" as="geometry" />
        </mxCell>
        <mxCell id="xV1JyaOktzTvIBMgtU9d-90" value="CloudIDE-Web Infra" style="text;html=1;align=center;verticalAlign=middle;resizable=0;points=[];autosize=1;fontSize=12;fontFamily=Comic Sans MS;fontStyle=1" vertex="1" parent="xV1JyaOktzTvIBMgtU9d-88">
          <mxGeometry width="140" height="20" as="geometry" />
        </mxCell>
        <mxCell id="xV1JyaOktzTvIBMgtU9d-92" value="" style="group" vertex="1" connectable="0" parent="1">
          <mxGeometry x="930" y="1080" width="275" height="180" as="geometry" />
        </mxCell>
        <mxCell id="xV1JyaOktzTvIBMgtU9d-93" value="" style="rounded=0;whiteSpace=wrap;html=1;sketch=1;" vertex="1" parent="xV1JyaOktzTvIBMgtU9d-92">
          <mxGeometry x="5.3921568627450975" y="36" width="269.60784313725486" height="144" as="geometry" />
        </mxCell>
        <mxCell id="xV1JyaOktzTvIBMgtU9d-94" value="Jetbrains IDE +Tools" style="text;html=1;align=center;verticalAlign=middle;resizable=0;points=[];autosize=1;fontSize=12;fontFamily=Comic Sans MS;fontStyle=1" vertex="1" parent="xV1JyaOktzTvIBMgtU9d-92">
          <mxGeometry x="-0.0021568627450960776" width="140" height="20" as="geometry" />
        </mxCell>
        <mxCell id="xV1JyaOktzTvIBMgtU9d-97" value="" style="group" vertex="1" connectable="0" parent="1">
          <mxGeometry x="110" y="870" width="571" height="340" as="geometry" />
        </mxCell>
        <mxCell id="xV1JyaOktzTvIBMgtU9d-47" value="" style="rounded=0;whiteSpace=wrap;html=1;sketch=1;" vertex="1" parent="xV1JyaOktzTvIBMgtU9d-97">
          <mxGeometry x="11" y="40" width="560" height="300" as="geometry" />
        </mxCell>
        <mxCell id="xV1JyaOktzTvIBMgtU9d-48" value="环境平台 - 环境详情" style="text;html=1;strokeColor=none;fillColor=none;align=center;verticalAlign=middle;whiteSpace=wrap;rounded=0;sketch=1;fontFamily=Comic Sans MS;" vertex="1" parent="xV1JyaOktzTvIBMgtU9d-97">
          <mxGeometry width="130" height="20" as="geometry" />
        </mxCell>
        <mxCell id="xV1JyaOktzTvIBMgtU9d-55" value="" style="verticalLabelPosition=bottom;verticalAlign=top;html=1;shape=mxgraph.basic.patternFillRect;fillStyle=diag;step=5;fillStrokeWidth=0.2;fillStrokeColor=#dddddd;shadow=0;glass=0;sketch=1;fontFamily=Comic Sans MS;" vertex="1" parent="xV1JyaOktzTvIBMgtU9d-97">
          <mxGeometry x="50" y="60" width="470" height="70" as="geometry" />
        </mxCell>
        <mxCell id="xV1JyaOktzTvIBMgtU9d-56" value="ENV Detail Info" style="text;html=1;strokeColor=none;fillColor=none;align=center;verticalAlign=middle;whiteSpace=wrap;rounded=0;sketch=1;fontFamily=Comic Sans MS;fontSize=12;fontStyle=1" vertex="1" parent="xV1JyaOktzTvIBMgtU9d-97">
          <mxGeometry x="225" y="85" width="130" height="20" as="geometry" />
        </mxCell>
        <mxCell id="xV1JyaOktzTvIBMgtU9d-62" value="" style="verticalLabelPosition=bottom;verticalAlign=top;html=1;shape=mxgraph.basic.patternFillRect;fillStyle=diagRev;step=5;fillStrokeWidth=0.2;fillStrokeColor=#dddddd;shadow=0;glass=0;sketch=1;fontFamily=Comic Sans MS;fontSize=12;" vertex="1" parent="xV1JyaOktzTvIBMgtU9d-97">
          <mxGeometry x="50" y="170" width="470" height="40" as="geometry" />
        </mxCell>
        <mxCell id="xV1JyaOktzTvIBMgtU9d-63" value="Key Actions" style="text;html=1;strokeColor=none;fillColor=none;align=center;verticalAlign=middle;whiteSpace=wrap;rounded=0;sketch=1;fontFamily=Comic Sans MS;fontStyle=1" vertex="1" parent="xV1JyaOktzTvIBMgtU9d-97">
          <mxGeometry x="410" y="180" width="94" height="20" as="geometry" />
        </mxCell>
        <mxCell id="xV1JyaOktzTvIBMgtU9d-64" value="" style="rounded=0;whiteSpace=wrap;html=1;sketch=1;fontFamily=hannotateSC-W5;" vertex="1" parent="xV1JyaOktzTvIBMgtU9d-97">
          <mxGeometry x="50" y="230" width="470" height="35" as="geometry" />
        </mxCell>
        <mxCell id="xV1JyaOktzTvIBMgtU9d-65" value="" style="rounded=0;whiteSpace=wrap;html=1;sketch=1;fontFamily=hannotateSC-W5;" vertex="1" parent="xV1JyaOktzTvIBMgtU9d-97">
          <mxGeometry x="50" y="286" width="470" height="35" as="geometry" />
        </mxCell>
        <mxCell id="xV1JyaOktzTvIBMgtU9d-99" value="" style="rounded=0;whiteSpace=wrap;html=1;sketch=1;fillColor=#ffe6cc;strokeColor=#d79b00;" vertex="1" parent="1">
          <mxGeometry x="831" y="60" width="560" height="300" as="geometry" />
        </mxCell>
        <mxCell id="xV1JyaOktzTvIBMgtU9d-100" value="环境平台 - 服务列表" style="text;html=1;strokeColor=none;fillColor=none;align=center;verticalAlign=middle;whiteSpace=wrap;rounded=0;sketch=1;fontFamily=Comic Sans MS;" vertex="1" parent="1">
          <mxGeometry x="820" y="20" width="130" height="20" as="geometry" />
        </mxCell>
        <mxCell id="xV1JyaOktzTvIBMgtU9d-107" value="" style="shape=doubleArrow;whiteSpace=wrap;html=1;shadow=0;glass=0;sketch=1;fontFamily=Comic Sans MS;fontSize=12;fillColor=#ffe6cc;strokeColor=#d79b00;" vertex="1" parent="1">
          <mxGeometry x="700" y="120" width="100" height="30" as="geometry" />
        </mxCell>
        <mxCell id="xV1JyaOktzTvIBMgtU9d-108" value="Merge？" style="text;html=1;align=center;verticalAlign=middle;resizable=0;points=[];autosize=1;fontSize=12;fontFamily=Comic Sans MS;" vertex="1" parent="1">
          <mxGeometry x="720" y="90" width="60" height="20" as="geometry" />
        </mxCell>
        <mxCell id="xV1JyaOktzTvIBMgtU9d-80" style="edgeStyle=orthogonalEdgeStyle;rounded=0;sketch=1;orthogonalLoop=1;jettySize=auto;html=1;entryX=0;entryY=0.5;entryDx=0;entryDy=0;entryPerimeter=0;fontFamily=Comic Sans MS;fontSize=12;" edge="1" parent="1" source="xV1JyaOktzTvIBMgtU9d-63" target="xV1JyaOktzTvIBMgtU9d-78">
          <mxGeometry relative="1" as="geometry">
            <Array as="points">
              <mxPoint x="710" y="1060" />
              <mxPoint x="710" y="810" />
            </Array>
          </mxGeometry>
        </mxCell>
      </root>
    </mxGraphModel>
  </diagram>
</mxfile>
